<?xml version="1.0" standalone="no"?>
<!DOCTYPE svg PUBLIC "-//W3C//DTD SVG 20010904//EN"
 "http://www.w3.org/TR/2001/REC-SVG-20010904/DTD/svg10.dtd">
<svg version="1.0" xmlns="http://www.w3.org/2000/svg"
 width="96.000000pt" height="96.000000pt" viewBox="0 0 96.000000 96.000000"
 preserveAspectRatio="xMidYMid meet">

<g transform="translate(0.000000,96.000000) scale(0.100000,-0.100000)"
fill="#000000" stroke="none">
<path d="M289 873 c-15 -2 -51 -19 -80 -36 -94 -56 -142 -167 -119 -273 26
-115 135 -204 252 -204 24 0 28 4 28 28 1 15 7 38 15 52 21 37 19 40 -27 40
-53 0 -100 28 -118 69 -7 17 -19 31 -26 31 -19 0 -17 20 4 36 16 13 16 13 0
14 -22 0 -24 30 -3 30 9 0 19 11 24 23 5 13 24 36 41 50 26 22 42 27 86 27 54
0 55 0 52 -27 -3 -26 -6 -28 -40 -25 -28 3 -42 -2 -60 -20 l-23 -23 58 -3 c77
-4 72 -26 -6 -30 -76 -4 -73 -22 4 -22 78 0 77 -23 -2 -30 l-54 -5 24 -24 c19
-19 30 -22 62 -18 30 4 39 2 39 -9 0 -11 9 -9 33 9 48 36 93 57 123 57 26 0
26 1 20 52 -13 98 -56 163 -136 203 -48 24 -123 37 -171 28z"/>
<path d="M625 790 c-12 -20 7 -30 54 -30 60 0 79 -19 83 -85 2 -36 7 -50 18
-50 21 0 25 64 6 109 -11 26 -26 41 -50 51 -41 17 -102 20 -111 5z"/>
<path d="M665 560 c-10 -11 -26 -20 -36 -20 -10 0 -25 -10 -33 -21 -8 -12 -28
-30 -45 -40 -17 -10 -33 -30 -37 -46 -3 -15 -36 -58 -72 -95 -73 -75 -74 -84
-23 -154 108 -147 343 -126 428 39 58 114 23 252 -82 324 -55 38 -75 41 -100
13z m-28 -49 c3 -12 17 -23 34 -26 24 -6 29 -12 29 -36 0 -24 -4 -29 -17 -25
-52 15 -69 16 -87 3 -25 -18 -15 -32 45 -62 63 -32 85 -64 73 -108 -6 -22 -20
-37 -41 -47 -18 -8 -33 -23 -33 -32 0 -11 -8 -18 -20 -18 -13 0 -20 7 -20 19
0 14 -10 21 -35 25 -31 6 -35 11 -35 37 0 27 2 30 23 22 12 -4 40 -8 62 -8 30
0 40 4 43 18 3 13 -10 24 -51 42 -58 25 -87 56 -87 91 0 26 36 74 56 74 8 0
19 11 24 25 11 30 30 33 37 6z"/>
<path d="M167 334 c-12 -12 -8 -73 8 -110 10 -24 25 -39 51 -50 45 -19 109
-15 109 6 0 11 -14 16 -50 18 -65 4 -83 22 -87 85 -3 47 -15 67 -31 51z"/>
</g>
</svg>
